<svg xmlns="http://www.w3.org/2000/svg" width="24.029" height="24" viewBox="0 0 24.029 24">
  <g id="Approved" transform="translate(-10.452 -10.387)">
    <g id="Group_5296" data-name="Group 5296" transform="translate(10.452 10.387)">
      <path id="Path_9043" data-name="Path 9043" d="M28.518,31.37h3.1a.351.351,0,0,0,.087.009.609.609,0,0,1,.6.291.923.923,0,0,1,.036.74,2.094,2.094,0,0,1-2.19,1.251c-.714,0-1.354-.009-1.96-.024a1.4,1.4,0,0,1-.785-.334.894.894,0,0,1-.282-.734,1.324,1.324,0,0,1,1.356-1.2A.185.185,0,0,0,28.518,31.37Zm-.651-3.439a2.982,2.982,0,0,0,.428.033H31.9a.333.333,0,0,0,.112.018.9.9,0,0,1,.787.385,1.484,1.484,0,0,1,.253.934,1.541,1.541,0,0,1-.362.946,1.219,1.219,0,0,1-.9.4H27.806a1.47,1.47,0,0,1-1.142-.408,1.182,1.182,0,0,1-.3-.886,1.416,1.416,0,0,1,1.356-1.389A.364.364,0,0,0,27.867,27.932ZM28.3,24.48q.128.011.264.011H32.36a1.352,1.352,0,0,1,1.365,1.4,1.26,1.26,0,0,1-.389.926,1.676,1.676,0,0,1-1.014.419H28.3a1.454,1.454,0,0,1-1.141-.413,1.237,1.237,0,0,1-.3-.913,1.441,1.441,0,0,1,1.359-1.423A.331.331,0,0,0,28.3,24.48ZM12.215,21.99h2.676a1.033,1.033,0,0,1,1.041,1.044v8.888a1.031,1.031,0,0,1-1.041,1.041H12.215a1.03,1.03,0,0,1-1.04-1.041V23.033A1.031,1.031,0,0,1,12.215,21.99Zm16.326-1.177,3.869.04a1.367,1.367,0,0,1,1.349,1.354,1.471,1.471,0,0,1-1.423,1.562h-3.77a1.289,1.289,0,0,1-1.439-1.43,1.8,1.8,0,0,1,.4-1.046,1.263,1.263,0,0,1,.96-.477A.258.258,0,0,0,28.542,20.813Zm-2.909-9.7a1.555,1.555,0,0,1,1.043.454,3.145,3.145,0,0,1,.693,3.6,9.731,9.731,0,0,0-.835,3.82,3.082,3.082,0,0,0,.071.5v0a.338.338,0,0,0,.014.094c.092.345.148,1.029.2,1.454a2.508,2.508,0,0,0-.414,1.266,2.162,2.162,0,0,0,.4,1.394,3.839,3.839,0,0,1-3.844,2.5.361.361,0,0,0,0,.723,5,5,0,0,0,3.181-1.075.151.151,0,0,0-.006.027,1.971,1.971,0,0,0,.488,1.441,1.709,1.709,0,0,0,.177.166,2.228,2.228,0,0,0-1.153,1.835,1.913,1.913,0,0,0,.49,1.418,1.958,1.958,0,0,0,.866.521,1.958,1.958,0,0,0-.6,1.269,1.662,1.662,0,0,0,.3,1.061A26.7,26.7,0,0,1,21.777,33a13.488,13.488,0,0,0-3.542-.7H16.613a1.76,1.76,0,0,0,.042-.378V23.035a1.772,1.772,0,0,0-.045-.393,4.351,4.351,0,0,0,2.077-1.379c.635-.678,1.222-1.475,1.951-2.2,2.931-2.935,3.789-3.951,4.478-7.382C25.2,11.236,25.371,11.135,25.633,11.113Zm.144-.723a1.074,1.074,0,0,0-.206,0,1.346,1.346,0,0,0-1.163,1.142c-.673,3.353-1.356,4.085-4.281,7.014-.775.775-1.376,1.585-1.969,2.219a3.494,3.494,0,0,1-1.866,1.209,1.758,1.758,0,0,0-1.4-.707H12.215a1.768,1.768,0,0,0-1.763,1.765v8.886a1.768,1.768,0,0,0,1.763,1.765h2.676a1.752,1.752,0,0,0,1.365-.664h1.975a13.136,13.136,0,0,1,3.383.682,31.552,31.552,0,0,0,6.54.654,3.333,3.333,0,0,0,.414.027.438.438,0,0,0,.107-.014c.468.007.953.012,1.479.012a2.841,2.841,0,0,0,2.878-1.752,1.611,1.611,0,0,0-.1-1.325c-.087-.149-.324-.146-.469-.25.262-.114.6-.132.774-.329a2.241,2.241,0,0,0,.546-1.393,2.181,2.181,0,0,0-.4-1.4c-.11-.15-.353-.146-.511-.253.329-.11.743-.13.964-.338a2.007,2.007,0,0,0,.613-1.443,2.047,2.047,0,0,0-1.325-1.8,2.153,2.153,0,0,0,1.358-1.936,2.124,2.124,0,0,0-2.043-2.037h-.011l-4.251-.043h-.006a.745.745,0,0,1-.651-.262,1.532,1.532,0,0,1-.268-.879,9.4,9.4,0,0,1,.79-3.52,3.9,3.9,0,0,0-.886-4.4,2.317,2.317,0,0,0-1.379-.637h0Z" transform="translate(-10.452 -10.387)" fill="#fff"/>
    </g>
  </g>
</svg>
