<svg xmlns="http://www.w3.org/2000/svg" width="23.975" height="24" viewBox="0 0 23.975 24">
  <g id="under_development" data-name="under development" transform="translate(-2.05 -2)">
    <g id="Group_5292" data-name="Group 5292" transform="translate(2.05 2)">
      <path id="Path_9034" data-name="Path 9034" d="M20.225,17.5l-.3-.9h0c0-.05-.35-1.05-.35-1h-.05c-.25-.5.05,0-7.35-7.45l.3-.3a.966.966,0,0,0,0-1.4l-.95-.95c-.85-.85-1.65.25-1.7.3L6.875,2.85a2.8,2.8,0,0,0-2-.85,2.72,2.72,0,0,0-2,.85,2.837,2.837,0,0,0,0,4L5.825,9.8c-.05.05-1.15.9-.3,1.7.8.7,1,1.25,1.65,1.25.55,0,.8-.45,1-.6l3.45,3.45h0l3.6,3.6c.5.5,1,.5,2.3,1,1,.85,1.4,1.8,2.6,1.8a1.9,1.9,0,0,0,1.35-3.25ZM3.575,6.15a1.872,1.872,0,0,1,0-2.6,1.811,1.811,0,0,1,2.6,0L9.125,6.5l-2.6,2.6Zm2.65,4.65.3-.3h0l4.3-4.3.95.95-.3.3h0l-4.3,4.3Zm2.65.7,2.6-2.6,6.75,6.75h-5.2Zm10.6,9.25-1.4-1.4c-3.1-1.1-1.1-.05-4.05-2.7h4.85l.5,1.45,1.4,1.4C21.625,20.3,20.325,21.6,19.475,20.75Z" transform="translate(-2.05 -2)" fill="#fff"/>
      <path id="Path_9035" data-name="Path 9035" d="M44.4,39.213a.52.52,0,0,0-.8,0c-.3.4-1.6,2.35-1.6,3.3a2,2,0,0,0,4,0C46,41.563,44.7,39.613,44.4,39.213Zm-1.4,3.3a6.147,6.147,0,0,1,1-2.1,6.147,6.147,0,0,1,1,2.1A1,1,0,0,1,43,42.513Z" transform="translate(-22.025 -20.513)" fill="#fff"/>
    </g>
  </g>
</svg>
